<?xml version="1.0" standalone="no"?>
<!DOCTYPE svg PUBLIC "-//W3C//DTD SVG 20010904//EN"
 "http://www.w3.org/TR/2001/REC-SVG-20010904/DTD/svg10.dtd">
<svg version="1.0" xmlns="http://www.w3.org/2000/svg"
 width="626.000000pt" height="471.000000pt" viewBox="0 0 626.000000 471.000000"
 preserveAspectRatio="xMidYMid meet">

<g transform="translate(0.000000,471.000000) scale(0.100000,-0.100000)"
fill="#000000" stroke="none">
<path d="M1027 4292 c-29 -30 -33 -42 -16 -42 6 0 22 -9 36 -20 14 -11 29 -17
34 -14 5 3 9 1 9 -4 0 -15 139 -94 152 -86 7 4 8 3 4 -4 -7 -11 26 -35 38 -27
3 3 4 2 1 -1 -2 -4 29 -29 70 -56 41 -27 75 -51 75 -54 0 -7 -42 16 -63 34 -9
8 -26 20 -37 26 -10 6 -65 38 -122 71 -57 33 -109 62 -116 63 -8 2 -22 12 -33
23 -18 18 -69 27 -69 12 0 -5 -13 -16 -28 -26 -19 -13 -16 -8 10 17 21 20 32
36 25 35 -16 -1 -150 -157 -150 -174 0 -8 -3 -13 -6 -12 -3 1 -25 -19 -49 -44
l-42 -46 92 -60 c51 -33 159 -101 240 -152 86 -54 145 -97 141 -104 -3 -6 -1
-7 5 -3 14 8 105 -47 95 -58 -5 -4 -3 -7 2 -5 21 5 65 -13 58 -25 -3 -6 6 0
20 13 15 14 27 29 27 35 -1 6 -10 0 -20 -13 -11 -13 -20 -19 -20 -14 0 12 40
49 47 45 3 -2 7 -1 9 2 2 3 1 4 -2 2 -3 -3 -16 6 -28 18 -11 13 -31 26 -43 30
-11 4 -27 14 -35 23 -9 12 -9 15 -1 9 7 -4 23 -9 34 -11 12 -3 28 -14 36 -25
8 -11 20 -20 26 -20 11 1 177 200 177 213 0 3 -22 19 -50 36 -68 42 -63 49 6
10 l56 -31 29 28 c39 37 37 24 -3 -23 -18 -21 -25 -32 -15 -24 10 8 32 33 50
55 17 23 23 34 13 27 -16 -13 -17 -13 -14 5 2 14 -2 18 -16 16 -10 -2 -15 1
-12 6 3 5 -2 9 -12 8 -9 0 -16 4 -15 11 2 7 -4 10 -12 7 -8 -3 -25 5 -38 18
-12 12 -29 23 -37 23 -8 0 -14 5 -13 10 1 6 -6 11 -16 12 -22 2 -113 58 -105
66 3 3 -3 4 -13 4 -10 -1 -17 3 -16 10 2 8 -4 10 -14 6 -12 -5 -14 -3 -8 7 5
9 4 11 -3 6 -16 -10 -54 12 -46 26 4 7 3 8 -4 4 -16 -10 -54 12 -46 26 4 6 3
8 -4 4 -12 -7 -84 32 -78 43 3 4 -4 8 -15 9 -10 1 -28 3 -39 4 -11 1 -20 6
-20 12 0 9 -30 35 -41 36 -3 0 -17 -13 -32 -28z m23 3 c-10 -12 -7 -17 14 -26
14 -7 26 -16 26 -21 0 -5 -9 -4 -20 2 -15 8 -20 8 -20 -2 0 -8 -6 -7 -17 5
-16 15 -16 18 2 37 21 23 34 28 15 5z m80 -65 c0 -5 -4 -10 -10 -10 -5 0 -10
5 -10 10 0 6 5 10 10 10 6 0 10 -4 10 -10z m-100 -40 c0 -5 -4 -10 -10 -10 -5
0 -10 5 -10 10 0 6 5 10 10 10 6 0 10 -4 10 -10z m210 -36 c0 -2 -9 0 -20 6
-11 6 -20 13 -20 16 0 2 9 0 20 -6 11 -6 20 -13 20 -16z m-200 -34 c8 -5 11
-10 5 -10 -5 0 -17 5 -25 10 -8 5 -10 10 -5 10 6 0 17 -5 25 -10z m24 -63 c18
-13 16 -14 -20 -12 -49 3 -49 2 -35 18 6 8 7 17 3 22 -9 10 28 -10 52 -28z
m146 -33 c0 -2 -9 0 -20 6 -11 6 -20 13 -20 16 0 2 9 0 20 -6 11 -6 20 -13 20
-16z m65 8 c-3 -3 -11 0 -18 7 -9 10 -8 11 6 5 10 -3 15 -9 12 -12z m-364 -60
c41 -27 89 -57 107 -67 17 -11 32 -23 32 -27 0 -5 -26 8 -57 29 -32 20 -75 45
-95 55 -21 10 -38 22 -38 27 0 4 -10 13 -22 19 -13 6 -18 11 -12 11 5 1 44
-21 85 -47z m423 19 c-2 -3 -12 3 -22 13 -16 17 -16 18 5 5 12 -7 20 -15 17
-18z m-524 -1 c0 -5 14 -17 31 -25 17 -9 29 -19 26 -21 -3 -3 -21 5 -41 18
-35 23 -46 38 -26 38 6 0 10 -4 10 -10z m428 -32 c18 -14 21 -19 8 -14 -10 3
-24 2 -30 -3 -7 -6 -18 -6 -26 -1 -11 7 -11 11 -1 24 17 20 18 20 49 -6z m243
3 c24 -20 24 -20 2 -14 -12 3 -28 11 -34 19 -17 21 5 17 32 -5z m-106 -110 c0
-8 -4 -16 -10 -18 -16 -5 -38 14 -30 26 9 16 40 9 40 -8z m-270 -1 c3 -5 2
-10 -4 -10 -5 0 -13 5 -16 10 -3 6 -2 10 4 10 5 0 13 -4 16 -10z m137 -82 c14
-10 29 -18 32 -18 4 0 17 -10 29 -22 18 -17 13 -16 -28 7 -74 42 -155 95 -155
101 0 5 79 -39 122 -68z"/>
<path d="M4890 3814 l-254 -154 -107 -268 c-58 -147 -105 -268 -104 -270 3 -3
262 159 469 293 14 9 260 545 253 551 -1 2 -117 -67 -257 -152z m120 -139
c-18 -21 -80 -58 -87 -51 -9 9 17 36 56 56 40 20 50 18 31 -5z m-110 -65 c0
-11 -73 -60 -89 -60 -20 0 1 27 37 48 41 24 52 27 52 12z m-130 -80 c0 -11
-74 -60 -91 -60 -17 0 10 29 46 52 34 20 45 22 45 8z m-130 -80 c0 -12 -80
-64 -87 -56 -8 8 8 27 41 47 35 21 46 24 46 9z"/>
<path d="M676 3888 c-28 -37 -27 -42 17 -65 45 -23 256 -164 263 -175 3 -5
-34 16 -82 48 -49 32 -99 62 -111 68 -13 6 -23 14 -23 19 0 4 -5 7 -12 7 -6 0
-26 11 -44 25 -18 14 -35 25 -37 25 -6 0 -197 -217 -197 -224 0 -3 -13 -20
-30 -38 -16 -18 -30 -35 -30 -38 0 -3 12 -12 28 -21 15 -9 113 -76 217 -149
105 -72 227 -156 273 -187 45 -30 82 -60 82 -66 0 -5 9 -2 20 8 28 25 25 43
-2 19 -13 -10 -10 -4 6 14 32 34 48 44 25 15 -13 -16 -12 -17 4 -4 12 10 15
17 7 25 -16 16 -12 29 10 23 10 -3 18 -1 17 3 -3 12 243 291 252 285 5 -2 15
3 22 13 13 15 12 16 -3 4 -9 -7 -18 -9 -20 -3 -3 8 -100 71 -393 254 -44 28
-112 72 -152 99 -40 26 -74 48 -77 48 -2 0 -16 -14 -30 -32z m4 -109 c17 -13
18 -17 5 -10 -33 17 -51 31 -40 31 6 0 21 -10 35 -21z m110 -75 c0 -2 -9 0
-20 6 -11 6 -20 13 -20 16 0 2 9 0 20 -6 11 -6 20 -13 20 -16z m-150 -9 c19
-14 29 -25 23 -25 -12 0 -73 49 -62 50 3 0 20 -11 39 -25z m54 -43 c9 -15 -12
-35 -29 -28 -14 5 -15 9 -5 21 14 17 26 19 34 7z m316 -38 c0 -2 -9 0 -20 6
-11 6 -20 13 -20 16 0 2 9 0 20 -6 11 -6 20 -13 20 -16z m-274 -195 c6 -10
-36 10 -46 22 -3 3 -43 31 -90 62 -47 30 -98 67 -115 81 -16 15 32 -14 107
-64 76 -50 140 -96 144 -101z m343 157 c10 -12 8 -13 -8 -9 -12 3 -21 9 -21
14 0 14 16 11 29 -5z m-225 -25 c9 -15 -23 -36 -36 -23 -5 5 -7 15 -4 21 9 13
33 14 40 2z m326 -43 c0 -13 -23 -5 -28 10 -2 7 2 10 12 6 9 -3 16 -11 16 -16z
m-153 -84 c5 -15 -20 -24 -37 -14 -7 4 -9 13 -5 19 8 14 37 11 42 -5z m-252
-24 c3 -5 -1 -10 -9 -10 -9 0 -16 5 -16 10 0 6 4 10 9 10 6 0 13 -4 16 -10z
m75 -50 c0 -5 -4 -10 -9 -10 -6 0 -13 5 -16 10 -3 6 1 10 9 10 9 0 16 -4 16
-10z m35 -20 c3 -5 2 -10 -4 -10 -5 0 -13 5 -16 10 -3 6 -2 10 4 10 5 0 13 -4
16 -10z m35 -30 c0 -5 -4 -10 -10 -10 -5 0 -10 5 -10 10 0 6 5 10 10 10 6 0
10 -4 10 -10z m80 -50 c0 -5 -6 -10 -14 -10 -8 0 -18 5 -21 10 -3 6 3 10 14
10 12 0 21 -4 21 -10z"/>
<path d="M1690 3891 l-20 -30 45 -31 c58 -40 52 -52 -5 -14 l-43 28 -51 -59
c-28 -33 -82 -93 -119 -135 -38 -41 -73 -83 -78 -92 -7 -14 16 -32 139 -109
208 -130 243 -155 234 -164 -4 -5 -2 -5 5 -1 7 4 21 -1 31 -11 10 -10 25 -19
32 -21 21 -5 70 -42 70 -53 0 -6 4 -8 8 -5 12 7 93 -49 85 -59 -5 -4 -3 -5 4
-2 14 9 115 -57 105 -68 -4 -5 -1 -5 5 -1 8 4 24 -4 40 -21 14 -15 23 -21 19
-13 -4 8 2 4 14 -10 12 -14 18 -18 14 -10 -4 8 4 3 19 -12 28 -30 42 -36 32
-15 -3 6 2 2 11 -10 9 -13 25 -23 35 -23 10 0 21 -5 25 -12 4 -7 3 -8 -4 -4
-7 4 -12 5 -12 2 0 -3 10 -10 21 -17 15 -7 19 -8 15 0 -4 6 -1 9 7 5 8 -3 20
2 27 10 7 9 16 14 20 11 4 -3 33 28 65 68 l57 72 -57 -60 c-82 -87 -47 -29 59
98 50 61 90 114 88 119 -1 5 1 7 6 4 5 -3 24 10 42 29 30 30 32 36 19 52 -13
16 -12 17 4 4 9 -7 17 -10 17 -5 0 13 -60 45 -71 38 -5 -3 -8 0 -7 8 2 7 -5
12 -14 12 -10 -1 -15 3 -11 9 4 6 0 8 -10 4 -9 -3 -19 -1 -23 5 -4 7 -3 8 4 4
7 -4 12 -5 12 -2 0 3 -10 10 -21 17 -17 9 -20 8 -14 -3 5 -7 -3 -2 -16 12 -29
30 -136 93 -162 95 -10 1 -23 8 -30 15 -10 10 -9 11 3 6 8 -4 6 0 -5 8 -11 9
-25 14 -32 12 -7 -3 -15 0 -19 6 -4 7 -3 8 4 4 7 -4 12 -5 12 -2 0 3 -10 10
-21 17 -15 8 -19 8 -15 0 13 -21 -5 -11 -31 17 -15 15 -23 21 -18 14 6 -11 3
-12 -14 -3 -11 7 -21 14 -21 17 0 3 5 2 10 -1 6 -3 10 -4 10 -1 0 3 -10 10
-21 17 -17 9 -20 8 -14 -3 4 -7 -2 -2 -13 11 -10 13 -24 21 -30 17 -6 -3 -14
-1 -18 5 -4 8 -3 9 4 5 7 -4 12 -5 12 -2 0 3 -10 10 -21 17 -16 8 -20 8 -14
-1 6 -9 3 -9 -13 -1 -11 6 -22 18 -26 26 -3 9 -10 13 -16 10 -13 -8 -52 19
-42 30 4 5 2 5 -5 1 -6 -3 -22 4 -34 16 -12 13 -18 17 -14 10 4 -8 -10 -4 -33
9 -22 13 -38 27 -36 31 2 3 -1 10 -7 14 -8 5 -9 3 -4 -6 5 -8 3 -11 -6 -8 -8
3 -13 10 -12 16 2 6 -3 9 -11 6 -8 -3 -17 0 -22 7 -5 8 -3 10 6 4 8 -5 11 -4
6 3 -4 6 -14 8 -23 5 -12 -5 -14 -3 -8 7 5 9 4 11 -4 6 -6 -4 -24 2 -40 13
-38 27 -46 27 -71 -8z m195 -172 c4 -6 -7 -4 -23 5 -17 9 -34 21 -37 27 -4 6
7 4 23 -5 17 -9 34 -21 37 -27z m-175 -60 c0 -12 -29 -24 -37 -16 -3 4 -3 13
0 21 6 16 37 11 37 -5z m275 1 c17 -11 26 -20 20 -20 -5 0 -23 9 -40 20 -16
11 -25 20 -20 20 6 0 24 -9 40 -20z m-417 -88 c34 -23 68 -42 76 -42 16 0 42
-28 33 -36 -4 -5 -124 66 -192 113 -20 13 -20 14 1 10 11 -1 48 -22 82 -45z
m527 18 c3 -5 -1 -10 -9 -10 -9 0 -16 5 -16 10 0 6 4 10 9 10 6 0 13 -4 16
-10z m-231 -9 c9 -15 -23 -36 -36 -23 -5 5 -7 15 -4 21 9 13 33 14 40 2z m381
-86 c19 -15 18 -15 -10 -1 -16 8 -39 22 -50 31 -19 15 -18 15 10 1 17 -8 39
-22 50 -31z m-235 -15 c0 -16 -26 -29 -40 -20 -11 7 -11 11 -1 24 12 14 41 12
41 -4z m-255 -31 c4 -6 -7 -4 -23 5 -17 9 -34 21 -37 27 -4 6 7 4 23 -5 17 -9
34 -21 37 -27z m765 -5 c0 -2 -9 0 -20 6 -11 6 -20 13 -20 16 0 2 9 0 20 -6
11 -6 20 -13 20 -16z m-250 -134 c0 -14 -20 -22 -37 -16 -12 5 -13 9 -3 21 11
14 40 10 40 -5z m-265 -15 c6 0 11 -4 13 -10 7 -19 -14 -14 -43 11 -26 22 -27
24 -5 13 14 -7 30 -13 35 -14z m565 0 c7 -8 8 -15 2 -15 -5 0 -15 7 -22 15 -7
8 -8 15 -2 15 5 0 15 -7 22 -15z m-164 -56 c10 -17 -13 -36 -27 -22 -12 12 -4
33 11 33 5 0 12 -5 16 -11z"/>
<path d="M1569 3773 l-24 -28 28 24 c25 23 32 31 24 31 -2 0 -14 -12 -28 -27z"/>
<path d="M1504 3698 l-19 -23 23 19 c21 18 27 26 19 26 -2 0 -12 -10 -23 -22z"/>
<path d="M1469 3653 c-13 -16 -12 -17 4 -4 9 7 17 15 17 17 0 8 -8 3 -21 -13z"/>
<path d="M4454 3551 l-142 -86 -93 -245 c-51 -135 -99 -260 -106 -277 -13 -32
-9 -30 124 54 76 48 140 88 142 89 5 4 221 547 218 549 -1 1 -66 -36 -143 -84z
m6 -213 c0 -12 -78 -68 -94 -68 -20 0 0 24 42 50 55 34 52 34 52 18z m-120
-72 c0 -8 -23 -28 -50 -45 -57 -35 -60 -36 -60 -18 0 7 24 27 53 44 61 38 57
37 57 19z"/>
<path d="M1295 3467 c-16 -17 -24 -28 -17 -23 7 4 24 -2 42 -16 16 -13 41 -31
55 -41 15 -11 24 -21 21 -24 -3 -3 -22 9 -43 26 -21 17 -42 31 -48 30 -5 0
-35 -30 -65 -65 -30 -36 -76 -88 -102 -115 -26 -27 -43 -49 -37 -49 5 0 9 -5
9 -11 0 -6 -8 -9 -17 -7 -16 3 -82 -58 -72 -66 4 -3 36 -26 191 -134 36 -25
65 -49 63 -52 -2 -4 2 -7 8 -7 17 0 193 -120 230 -158 17 -16 36 -29 43 -27 7
1 18 -6 24 -17 6 -12 20 -26 31 -32 17 -9 20 -8 14 3 -3 7 6 0 20 -17 15 -16
24 -23 20 -15 -4 8 3 4 14 -10 11 -14 21 -21 21 -16 0 6 6 2 13 -8 7 -9 21
-19 32 -20 11 -2 19 -9 18 -15 -3 -11 56 -47 70 -43 5 1 6 -1 3 -6 -2 -4 4
-14 16 -21 11 -7 17 -8 14 -2 -4 7 -1 9 8 5 17 -7 43 6 103 52 45 35 70 44 57
22 -6 -10 -5 -10 8 -1 8 7 18 10 21 6 4 -3 7 2 7 12 0 14 -3 15 -15 5 -11 -9
-15 -9 -15 -1 0 17 43 31 52 17 5 -7 8 -5 8 6 0 17 27 31 51 26 7 -2 13 4 14
12 0 8 9 15 21 16 24 1 74 32 74 46 0 5 23 36 50 69 28 33 50 65 50 72 0 8 -3
7 -9 -2 -7 -10 -14 -6 -32 18 -13 17 -29 29 -36 27 -7 -3 -15 0 -19 6 -5 7 -2
8 7 4 20 -11 -22 23 -45 36 -13 7 -16 7 -12 -1 14 -22 -7 -10 -37 22 -17 17
-27 26 -23 19 7 -11 4 -12 -13 -3 -11 7 -21 14 -21 17 0 3 5 2 12 -2 7 -4 8
-3 4 4 -4 6 -12 9 -19 7 -7 -3 -23 5 -37 16 -14 11 -19 18 -12 14 6 -3 12 -4
12 -1 0 3 -10 10 -21 17 -17 9 -20 8 -14 -3 4 -7 -3 -2 -15 12 -12 14 -19 19
-15 12 6 -11 3 -12 -14 -3 -11 7 -21 14 -21 17 0 3 5 2 12 -2 7 -4 8 -3 4 4
-4 6 -13 9 -20 6 -8 -3 -17 0 -22 7 -5 8 -3 10 6 4 8 -5 11 -4 6 3 -4 6 -13 9
-20 6 -8 -3 -17 0 -22 7 -5 8 -3 10 6 4 9 -5 11 -4 6 4 -4 6 -12 8 -18 5 -6
-4 -20 4 -30 17 -11 13 -17 18 -13 11 6 -11 3 -12 -14 -2 -12 6 -19 15 -16 19
2 5 -3 8 -13 7 -9 0 -16 4 -15 10 1 6 -4 11 -11 11 -21 0 -275 167 -268 177 3
5 0 6 -6 2 -12 -7 -94 47 -87 58 3 3 2 4 -2 1 -3 -3 -22 5 -41 17 l-35 22 -27
-32 c-15 -18 -30 -29 -33 -25 -4 3 0 15 10 25 28 32 9 27 -22 -5z m165 -138
c0 -14 -16 -11 -29 5 -10 12 -8 13 8 9 12 -3 21 -9 21 -14z m80 -49 c0 -5 -4
-10 -10 -10 -5 0 -10 5 -10 10 0 6 5 10 10 10 6 0 10 -4 10 -10z m-193 -51
c15 -15 -9 -41 -31 -33 -12 5 -13 9 -3 25 14 22 19 23 34 8z m140 -95 c5 -15
-28 -27 -40 -15 -5 5 -6 14 -2 21 8 13 37 9 42 -6z m348 -46 c14 -6 25 -15 25
-20 0 -13 -13 -9 -40 12 -28 22 -23 25 15 8z m-498 -48 c2 0 3 -7 3 -15 0 -11
-7 -10 -35 6 -43 26 -44 30 -3 18 18 -5 34 -9 35 -9z m613 -30 c0 -5 -2 -10
-4 -10 -3 0 -8 5 -11 10 -3 6 -1 10 4 10 6 0 11 -4 11 -10z m-572 -12 c19 -19
14 -30 -8 -18 -11 6 -20 15 -20 20 0 14 14 12 28 -2z m316 -7 c3 -5 0 -13 -7
-19 -15 -13 -42 1 -33 17 9 13 33 15 40 2z m307 -18 c13 -15 12 -15 -8 -4 -24
12 -29 21 -14 21 5 0 15 -7 22 -17z m44 -33 c3 -5 1 -10 -4 -10 -6 0 -11 5
-11 10 0 6 2 10 4 10 3 0 8 -4 11 -10z m75 -50 c18 -14 21 -20 9 -20 -9 0 -24
9 -34 20 -23 26 -8 26 25 0z m-226 -39 c9 -15 -23 -36 -36 -23 -5 5 -7 15 -4
21 9 13 33 14 40 2z m416 -40 l-32 -39 -50 30 c-61 38 -56 50 5 13 l45 -26 28
35 c16 19 30 33 32 31 2 -2 -10 -22 -28 -44z m-687 19 c20 -18 -10 -16 -33 2
l-25 21 25 -8 c14 -4 29 -11 33 -15z m91 -71 c-3 -5 -10 -7 -15 -3 -5 3 -7 10
-3 15 3 5 10 7 15 3 5 -3 7 -10 3 -15z m342 -20 c9 -16 -12 -33 -31 -25 -14 5
-15 9 -5 21 15 18 26 19 36 4z m-236 -49 c0 -5 18 -20 40 -32 22 -13 40 -26
40 -30 0 -10 -39 12 -80 44 -25 20 -30 28 -17 28 9 0 17 -4 17 -10z m134 -109
c-2 -3 -12 3 -22 13 -16 17 -16 18 5 5 12 -7 20 -15 17 -18z"/>
<path d="M4039 3301 l-226 -134 -41 -127 c-41 -122 -50 -157 -34 -134 7 12
105 74 115 74 4 0 4 -7 1 -15 -7 -16 -100 -78 -119 -78 -12 0 -51 -102 -47
-120 2 -5 -2 -6 -8 -2 -6 3 -8 10 -6 13 2 4 -8 15 -23 23 -28 16 -28 16 -68
-30 -48 -57 -65 -83 -40 -62 9 7 17 9 17 4 0 -16 -22 -32 -36 -26 -8 3 -17 -2
-20 -11 -7 -19 -44 -22 -44 -3 -1 7 -7 4 -15 -7 -8 -10 -20 -16 -27 -13 -8 3
-14 -2 -14 -13 0 -14 4 -16 17 -9 10 5 24 9 31 8 7 0 3 -5 -9 -11 -13 -6 -23
-17 -23 -24 0 -18 -22 -23 -45 -11 -11 6 -25 12 -31 13 -6 1 -23 8 -38 16
l-27 14 40 49 c35 42 51 75 37 75 -2 0 -20 -21 -40 -47 -22 -28 -36 -40 -36
-29 0 9 19 37 43 63 23 26 36 43 29 39 -8 -5 -21 -1 -33 9 -18 17 -18 19 -1
32 15 13 15 13 -6 3 -16 -8 -21 -17 -17 -29 3 -10 -4 -29 -15 -44 -12 -15 -18
-31 -15 -37 3 -6 -1 -13 -9 -16 -9 -3 -16 -12 -16 -20 0 -20 -18 -17 -32 5
-12 19 -12 19 -40 0 -15 -11 -28 -16 -28 -11 0 6 5 12 12 14 9 3 9 6 0 12 -8
4 -16 -2 -21 -17 -12 -30 -27 -41 -43 -30 -16 10 -58 12 -53 2 3 -3 -9 -6 -25
-5 -19 1 -31 7 -34 19 -2 9 -1 15 4 12 11 -7 31 20 22 30 -4 5 -1 5 6 1 7 -4
21 -4 33 -1 18 6 17 10 -20 38 -38 29 -40 32 -26 53 9 15 10 25 3 32 -7 7 8
33 46 83 31 41 56 81 56 90 0 9 9 24 20 34 11 10 20 21 20 26 0 14 -99 71
-111 63 -7 -4 -9 -3 -5 4 8 13 -30 36 -44 27 -6 -4 -13 1 -16 9 -7 19 -72 58
-84 51 -5 -3 -12 0 -16 6 -5 8 -2 10 7 5 8 -4 5 0 -6 8 -11 9 -25 14 -32 12
-7 -3 -15 0 -19 6 -5 7 -2 8 7 3 9 -5 11 -5 4 2 -5 5 -26 19 -45 30 l-35 21
-74 -82 c-41 -44 -57 -64 -35 -43 70 65 56 28 -25 -67 -43 -50 -90 -108 -103
-128 -14 -20 -28 -34 -32 -31 -3 3 -9 -3 -13 -13 -3 -10 -15 -25 -25 -32 -20
-15 -24 -47 -6 -58 7 -5 9 -2 4 7 -4 8 -1 6 7 -3 20 -25 26 -23 93 20 76 49
88 53 110 38 11 -7 28 -16 38 -20 15 -5 17 -4 7 8 -9 11 -9 16 0 22 7 4 15 2
17 -4 2 -7 8 -12 13 -12 13 0 156 -96 165 -111 5 -9 0 -10 -15 -6 -19 5 -21 2
-15 -16 3 -12 8 -23 9 -25 2 -2 28 11 59 27 65 36 76 24 14 -13 -24 -14 -37
-26 -29 -26 8 0 12 -3 8 -6 -3 -4 3 -14 15 -24 46 -37 35 -55 -68 -117 -52
-32 -154 -95 -227 -140 -72 -45 -133 -80 -136 -78 -2 3 2 12 10 22 9 11 10 14
2 9 -7 -4 -13 -2 -13 3 0 6 -5 11 -11 11 -5 0 -7 -4 -4 -10 3 -6 2 -10 -3 -10
-15 0 -46 39 -47 60 -2 23 -12 36 -21 27 -4 -4 -1 -14 7 -24 8 -10 -6 -2 -31
16 -31 24 -23 13 28 -35 74 -72 84 -94 55 -126 -23 -25 -4 -45 25 -27 18 11
23 10 42 -12 l22 -24 -6 23 c-3 18 -1 22 11 18 13 -5 14 -4 3 9 -7 8 -18 15
-25 15 -7 0 -12 10 -12 23 0 17 16 31 66 61 36 21 135 82 219 133 85 52 155
93 157 91 2 -1 20 -43 40 -91 35 -85 35 -90 18 -103 -17 -14 -17 -15 3 -9 18
4 23 0 28 -22 4 -15 9 -36 12 -45 4 -12 0 -18 -11 -18 -10 0 -13 5 -9 12 4 7
3 8 -4 4 -7 -4 -11 -19 -11 -34 1 -17 3 -21 6 -9 2 9 11 17 20 17 19 0 12 -21
-10 -32 -9 -4 -23 -11 -31 -15 -14 -8 -124 -86 -216 -154 -74 -54 -156 -109
-163 -109 -3 0 -8 19 -12 43 -4 23 -11 49 -16 57 -6 10 -7 6 -3 -13 5 -20 1
-34 -12 -50 -19 -21 -19 -21 1 -7 18 14 19 14 6 -2 -7 -10 -17 -15 -22 -12 -7
4 -122 -65 -280 -169 l-26 -17 -32 77 c-72 171 -163 305 -269 394 -64 53 -92
69 -152 85 -37 10 -42 13 -25 20 33 13 46 36 27 50 -20 15 -55 -4 -47 -25 4
-11 3 -12 -10 -1 -12 10 -16 9 -21 -4 -3 -9 -11 -13 -17 -9 -6 4 -8 -2 -4 -16
3 -14 0 -24 -8 -27 -18 -7 -45 -76 -45 -115 0 -17 7 -68 16 -114 l17 -84 66
54 c73 62 100 67 145 32 24 -20 27 -25 15 -38 -25 -26 -21 -40 8 -34 16 3 21
2 13 -1 -24 -11 -30 -27 -17 -44 11 -13 10 -13 -6 -1 -9 8 -21 11 -24 7 -4 -4
-2 -11 6 -15 10 -6 9 -11 -3 -24 -20 -19 -21 -34 -2 -18 8 7 34 11 58 10 24
-2 50 1 56 5 14 9 67 -43 75 -73 3 -11 -2 -26 -12 -34 -30 -26 -128 -77 -134
-70 -4 3 -7 1 -7 -5 0 -6 -19 -20 -42 -31 l-43 -20 -22 37 c-13 20 -23 46 -23
56 0 11 -3 16 -6 13 -4 -4 -23 15 -42 41 -20 26 -75 92 -123 148 -62 71 -85
104 -77 112 5 5 7 16 3 23 -6 9 -11 8 -21 -5 -11 -16 -17 -14 -71 30 -32 26
-86 61 -121 77 -56 26 -70 29 -130 23 -92 -8 -90 -7 -84 -28 3 -11 -1 -18 -10
-18 -39 0 -58 -130 -34 -230 14 -60 14 -66 -1 -77 -15 -12 -15 -13 4 -13 15 0
23 -10 32 -42 15 -54 128 -283 146 -298 10 -8 19 -8 35 0 35 18 38 0 5 -26
-16 -13 -42 -24 -57 -24 -35 0 -37 -24 -5 -70 23 -35 49 -45 78 -29 15 7 25 2
51 -28 82 -95 226 -224 285 -259 18 -10 32 -25 30 -33 -1 -7 4 -16 12 -19 9
-3 11 0 6 8 -6 10 -4 11 11 5 133 -55 202 -42 252 50 12 22 16 54 15 120 -1
96 -19 179 -60 283 -21 53 -24 66 -12 73 9 5 22 0 39 -15 14 -13 54 -41 89
-62 75 -45 126 -51 184 -19 31 16 40 17 55 7 34 -24 41 -23 94 12 29 20 58 36
65 36 6 0 13 6 16 13 6 19 32 -7 56 -58 19 -41 41 -66 41 -47 0 5 11 14 25 20
25 11 25 13 9 37 -14 21 -19 23 -38 13 -20 -11 -20 -10 -3 9 32 37 12 57 -33
33 -12 -6 -21 -7 -25 -1 -3 6 4 15 16 21 43 24 79 64 85 96 3 19 10 34 14 34
5 0 11 9 15 20 5 15 12 18 33 14 38 -7 178 81 161 102 -7 9 -8 14 -1 14 6 0
12 -5 14 -11 2 -7 12 -7 31 2 24 11 30 10 44 -4 15 -14 13 -20 -26 -65 -22
-27 -41 -54 -41 -58 1 -5 51 -42 113 -83 62 -41 149 -101 194 -133 48 -34 88
-56 94 -52 7 4 9 3 6 -3 -9 -14 40 -46 55 -37 6 4 8 3 5 -3 -8 -13 40 -46 54
-38 5 4 8 1 7 -7 -2 -7 5 -12 14 -12 10 1 16 -3 15 -10 -1 -6 6 -11 15 -11 9
0 20 -4 25 -9 5 -5 2 -6 -7 -2 -8 4 -4 -2 10 -13 14 -11 32 -19 40 -18 8 1 15
-4 15 -10 0 -16 42 -46 54 -38 5 3 13 0 17 -6 4 -8 3 -9 -4 -5 -7 4 -12 5 -12
3 0 -10 81 -57 90 -52 5 3 12 0 16 -6 5 -8 3 -9 -6 -4 -9 6 -11 4 -6 -4 5 -7
14 -10 22 -7 7 3 16 0 20 -6 5 -7 2 -8 -7 -3 -8 4 0 -4 16 -19 17 -14 35 -23
42 -21 7 2 15 -1 19 -7 4 -7 3 -8 -4 -4 -7 4 -12 5 -12 2 0 -11 93 -66 102
-60 6 4 8 2 4 -4 -7 -11 57 -55 80 -55 8 0 12 -3 9 -5 -6 -7 15 -32 27 -32 5
0 6 5 2 12 -4 7 -3 8 5 4 6 -4 9 -11 6 -16 -3 -5 8 -16 24 -24 29 -16 30 -16
76 36 34 38 43 53 33 60 -8 5 0 6 19 4 19 -2 30 1 27 6 -4 6 13 30 37 55 27
28 39 47 32 50 -14 5 34 73 51 73 6 0 -3 -13 -19 -30 -16 -16 -26 -32 -23 -35
3 -3 32 25 64 62 67 78 90 110 53 74 -60 -61 -69 -62 -23 -4 27 34 53 58 57
54 5 -5 28 12 52 38 l43 46 -26 18 c-15 10 -40 25 -57 34 -28 15 -29 15 -15
-2 13 -16 -179 98 -231 138 -31 23 35 -14 121 -68 88 -56 90 -57 90 -51 0 2
-64 45 -142 93 -175 109 -168 105 -168 99 0 -2 16 -14 36 -26 19 -12 33 -24
31 -26 -4 -4 -155 92 -172 109 -5 6 2 3 18 -6 15 -9 39 -24 55 -33 l27 -16
-25 21 c-14 12 -38 29 -55 38 -16 9 -49 29 -72 44 -45 32 -58 36 -47 17 4 -8
3 -10 -2 -5 -5 5 -9 13 -9 17 0 12 -206 143 -213 136 -3 -4 -1 -6 4 -6 5 0 20
-10 34 -21 l25 -21 -35 21 c-19 11 -34 25 -33 31 3 12 -34 33 -46 26 -4 -3
-17 1 -27 10 -18 14 -18 15 4 4 38 -18 24 -4 -28 30 -27 17 -54 29 -59 26 -5
-4 -13 -1 -17 5 -5 8 -3 9 6 4 9 -6 11 -4 6 4 -5 7 -15 10 -23 7 -8 -3 -11 -2
-8 3 3 6 -8 18 -25 27 -30 18 -38 38 -20 49 5 3 29 -5 53 -19 24 -14 47 -24
50 -21 4 3 5 2 2 -2 -7 -9 33 -35 44 -28 5 3 13 0 17 -6 5 -8 3 -9 -6 -4 -9 6
-11 4 -6 -4 5 -7 15 -10 23 -7 8 3 11 1 8 -4 -6 -9 8 -14 28 -11 5 1 6 -3 3
-8 -7 -10 22 -25 43 -22 7 1 10 -2 7 -7 -8 -13 42 -45 56 -36 6 4 8 3 5 -3 -4
-6 27 -31 69 -57 42 -26 72 -42 69 -35 -9 13 42 -12 70 -36 11 -9 14 -13 6 -9
-10 5 -12 3 -7 -5 5 -7 15 -10 23 -7 8 3 12 2 9 -3 -7 -11 62 -53 74 -46 5 3
12 0 16 -6 5 -8 3 -9 -6 -4 -9 6 -11 4 -6 -4 5 -7 15 -10 23 -7 8 3 11 2 8 -4
-3 -5 4 -14 16 -20 17 -10 20 -9 14 2 -3 7 0 5 8 -4 8 -10 17 -14 21 -10 4 4
6 0 4 -8 -2 -9 4 -14 14 -14 10 1 15 -3 11 -9 -4 -6 0 -8 10 -4 9 3 19 1 23
-5 4 -7 3 -8 -4 -4 -7 4 -12 5 -12 3 0 -11 100 -68 109 -63 5 4 13 1 17 -5 5
-8 2 -10 -7 -5 -8 4 -5 0 6 -9 11 -9 29 -21 40 -26 15 -8 13 -4 -5 11 -25 22
-25 22 15 0 22 -13 50 -34 61 -48 12 -13 26 -22 32 -18 6 3 14 1 18 -5 4 -8 3
-9 -4 -5 -24 15 -11 -2 14 -19 15 -9 24 -13 20 -7 -4 6 2 8 15 5 16 -4 17 -8
7 -14 -9 -6 -9 -9 -1 -9 12 0 153 154 153 167 0 3 -11 -6 -25 -21 -13 -14 -27
-26 -30 -26 -3 0 52 65 121 145 112 128 156 173 128 132 -5 -7 2 0 16 16 25
27 37 67 21 67 -4 0 -16 7 -27 15 -16 14 -14 14 14 0 23 -11 32 -21 28 -31 -3
-9 -1 -12 4 -9 6 3 10 10 10 16 0 14 -63 50 -77 44 -7 -2 -12 1 -10 7 1 6 -4
13 -12 16 -9 3 -11 0 -6 -8 5 -9 4 -11 -4 -6 -6 4 -9 11 -6 15 7 12 -253 164
-266 155 -8 -4 -9 -3 -5 4 8 14 -30 36 -46 26 -6 -4 -8 -3 -4 4 8 13 -79 66
-94 57 -6 -4 -9 -1 -8 6 2 6 -3 14 -11 17 -9 3 -11 0 -6 -9 5 -8 4 -11 -1 -6
-5 5 -9 12 -9 17 0 7 -501 315 -534 328 -10 4 -12 1 -6 -8 5 -8 4 -11 -3 -7
-26 17 3 45 116 116 67 42 126 81 133 88 12 12 211 534 207 543 -2 3 -105 -55
-229 -129z m95 -173 c-6 -15 -94 -71 -101 -64 -9 8 7 26 45 51 41 26 64 32 56
13z m-1259 -28 c3 -5 -1 -10 -9 -10 -9 0 -16 5 -16 10 0 6 4 10 9 10 6 0 13
-4 16 -10z m1119 -55 c-7 -17 -102 -78 -115 -73 -15 5 4 24 56 56 56 35 67 39
59 17z m-1252 -67 c-15 -15 -24 -6 -16 16 5 12 10 14 17 7 8 -8 8 -14 -1 -23z
m-147 -6 c-3 -3 -11 0 -18 7 -9 10 -8 11 6 5 10 -3 15 -9 12 -12z m-65 -22 c0
-5 -2 -10 -4 -10 -3 0 -8 5 -11 10 -3 6 -1 10 4 10 6 0 11 -4 11 -10z m343
-51 c-17 -17 -37 -1 -22 17 8 10 15 12 23 4 7 -7 7 -13 -1 -21z m93 -47 l-29
-27 23 32 c13 18 26 30 29 28 3 -3 -8 -18 -23 -33z m363 -79 c0 -11 -59 -57
-59 -47 0 4 10 18 22 31 21 23 39 30 37 16z m-332 -35 c-3 -8 -6 -5 -6 6 -1
11 2 17 5 13 3 -3 4 -12 1 -19z m654 -74 c64 -43 69 -47 44 -38 -23 8 -105 63
-105 69 0 9 8 5 61 -31z m219 -10 c0 -2 -9 0 -20 6 -11 6 -20 13 -20 16 0 2 9
0 20 -6 11 -6 20 -13 20 -16z m133 -74 c48 -29 87 -55 87 -57 0 -5 3 -7 -102
56 -49 29 -88 55 -88 57 0 6 -2 8 103 -56z m-723 4 c0 -20 -7 -17 -20 6 -9 16
-8 18 5 14 8 -4 15 -12 15 -20z m-236 -60 c15 -37 25 -68 23 -70 -2 -3 -13 19
-25 48 -11 29 -23 61 -27 71 -4 9 -5 17 -2 17 3 0 17 -30 31 -66z m750 51 c11
-8 17 -17 14 -21 -7 -6 -48 17 -48 28 0 12 13 9 34 -7z m103 -58 c106 -61 134
-79 129 -84 -5 -5 -196 104 -196 112 0 9 7 6 67 -28z m-679 -12 c-3 -3 -9 2
-12 12 -6 14 -5 15 5 6 7 -7 10 -15 7 -18z m922 -11 c0 -2 -9 0 -20 6 -11 6
-20 13 -20 16 0 2 9 0 20 -6 11 -6 20 -13 20 -16z m-514 -15 c9 -16 -10 -31
-30 -23 -13 5 -14 9 -5 20 14 17 25 18 35 3z m564 -15 c0 -2 -9 0 -20 6 -11 6
-20 13 -20 16 0 2 9 0 20 -6 11 -6 20 -13 20 -16z m95 -57 c16 -15 -48 20 -70
38 -11 9 -2 7 20 -6 22 -12 45 -26 50 -32z m55 -33 c0 -2 -9 0 -20 6 -11 6
-20 13 -20 16 0 2 9 0 20 -6 11 -6 20 -13 20 -16z m-785 -58 c28 -14 35 -21
23 -24 -10 -2 -33 8 -51 22 -19 14 -38 26 -44 26 -5 0 -18 10 -29 22 -19 21
-18 21 21 -2 22 -13 58 -32 80 -44z m274 55 c12 -8 13 -12 1 -26 -12 -14 -15
-14 -28 -1 -8 8 -11 19 -8 25 9 13 16 14 35 2z m-496 -63 c17 -13 17 -15 3
-27 -13 -11 -21 -9 -51 9 -33 20 -34 23 -18 35 18 13 30 10 66 -17z m-113 14
c0 -4 -13 -23 -30 -42 -16 -19 -29 -40 -30 -46 0 -18 -50 -60 -51 -43 -4 56 4
86 29 106 23 19 35 25 75 32 4 0 7 -3 7 -7z m1250 -28 c0 -2 -9 0 -20 6 -11 6
-20 13 -20 16 0 2 9 0 20 -6 11 -6 20 -13 20 -16z m-190 -18 c0 -9 -41 8 -52
22 -11 13 -8 12 20 -2 17 -9 32 -18 32 -20z m-925 -16 c3 -5 1 -10 -4 -10 -6
0 -11 5 -11 10 0 6 2 10 4 10 3 0 8 -4 11 -10z m662 -28 c-8 -7 -21 -10 -30
-6 -13 5 -14 10 -7 25 9 16 14 17 30 7 16 -10 17 -15 7 -26z m618 -35 c16 -15
-48 20 -70 38 -11 9 -2 7 20 -6 22 -12 45 -26 50 -32z m-105 -68 c0 -5 -11 -3
-25 3 -14 6 -25 15 -25 19 0 5 11 3 25 -3 14 -6 25 -15 25 -19z m210 5 c0 -2
-9 0 -20 6 -11 6 -20 13 -20 16 0 2 9 0 20 -6 11 -6 20 -13 20 -16z m-1345
-56 c14 -6 25 -15 25 -19 0 -4 27 -21 61 -37 33 -16 56 -33 50 -36 -6 -4 -31
6 -56 21 -26 15 -57 34 -69 40 -24 13 -53 43 -43 43 3 0 18 -5 32 -12z m1232
-3 c17 -9 37 -22 44 -31 9 -11 -1 -9 -34 7 -26 13 -47 27 -47 31 0 11 2 10 37
-7z m-617 -46 c0 -4 -11 -2 -25 4 -14 7 -25 15 -25 19 0 4 11 2 25 -4 14 -6
25 -15 25 -19z m-1840 17 c0 -3 -4 -8 -10 -11 -5 -3 -10 -1 -10 4 0 6 5 11 10
11 6 0 10 -2 10 -4z m1631 -23 c13 -17 13 -17 -6 -3 -11 8 -22 16 -24 17 -2 2
0 3 6 3 6 0 17 -8 24 -17z m619 -15 c0 -14 -20 -18 -40 -8 -17 9 -19 14 -10
25 9 11 16 12 31 2 10 -6 19 -15 19 -19z m-627 -56 c20 -14 37 -27 37 -29 0
-3 -12 3 -27 13 -83 53 -103 67 -103 71 0 5 11 -1 93 -55z m1020 18 c20 -18
-21 -16 -43 2 l-24 19 30 -7 c16 -3 33 -10 37 -14z m-698 0 c3 -5 2 -10 -4
-10 -5 0 -13 5 -16 10 -3 6 -2 10 4 10 5 0 13 -4 16 -10z m-548 -6 c-3 -3 -12
-4 -19 -1 -8 3 -5 6 6 6 11 1 17 -2 13 -5z m-837 -8 c0 -3 -4 -8 -10 -11 -5
-3 -10 -1 -10 4 0 6 5 11 10 11 6 0 10 -2 10 -4z m-50 -52 c0 -14 -12 -19 -23
-8 -9 9 4 35 14 28 5 -3 9 -12 9 -20z m1890 -3 c0 -20 -25 -29 -44 -15 -16 11
-17 16 -6 28 9 12 17 13 31 5 10 -5 19 -13 19 -18z m-350 -3 c0 -5 -9 -4 -20
2 -11 6 -20 12 -20 14 0 2 9 2 20 -1 11 -3 20 -9 20 -15z m-295 -33 l20 -16
-20 10 c-11 5 -29 17 -40 26 l-20 16 20 -10 c11 -5 29 -17 40 -26z m456 -61
c8 -8 20 -14 26 -14 5 0 18 -9 28 -20 18 -20 18 -21 -1 -14 -26 10 -153 89
-184 114 -14 11 6 4 45 -16 39 -20 77 -42 86 -50z m-941 21 c0 -21 -19 -28
-36 -15 -10 9 -11 16 -3 26 12 15 39 8 39 -11z m-1110 -25 c0 -5 -4 -10 -10
-10 -5 0 -10 5 -10 10 0 6 5 10 10 10 6 0 10 -4 10 -10z m1555 -50 c4 -6 -5
-5 -19 2 -14 6 -26 15 -26 20 0 10 36 -7 45 -22z m355 -6 c0 -2 -9 0 -20 6
-11 6 -20 13 -20 16 0 2 9 0 20 -6 11 -6 20 -13 20 -16z m-1025 -6 c14 -6 25
-15 25 -20 0 -7 -31 8 -59 29 -10 7 10 2 34 -9z m1321 -18 c8 0 14 -5 14 -11
0 -6 10 -20 23 -31 l22 -19 -31 16 c-43 24 -85 59 -61 51 10 -3 25 -6 33 -6z
m-2206 -20 c0 -5 -5 -10 -11 -10 -5 0 -7 5 -4 10 3 6 8 10 11 10 2 0 4 -4 4
-10z m954 -6 c6 -15 4 -15 -11 -3 -10 7 -20 15 -22 16 -2 2 3 3 11 3 9 0 19
-7 22 -16z m-1774 -7 c0 -4 -15 -14 -32 -22 -20 -9 -26 -14 -15 -15 10 0 16
-4 13 -9 -3 -4 7 -6 22 -4 l27 4 -33 -30 c-18 -17 -36 -31 -40 -31 -4 0 -17
18 -28 39 -21 38 -21 40 -3 58 18 18 89 26 89 10z m2177 -5 c20 -13 -2 -35
-26 -27 -18 5 -20 9 -10 21 13 16 19 17 36 6z m343 -17 c14 -8 19 -14 10 -14
-8 0 -24 6 -34 14 -25 19 -9 19 24 0z m-580 -88 c0 -11 -34 8 -51 29 -12 16
-10 16 19 -1 17 -11 32 -23 32 -28z m691 16 c13 -15 12 -15 -8 -4 -24 12 -29
21 -14 21 5 0 15 -7 22 -17z m-2771 -42 c-44 -38 -60 -43 -60 -17 0 14 67 56
90 55 8 0 -5 -17 -30 -38z m2840 -1 c8 -5 12 -11 9 -14 -3 -3 -14 1 -25 9 -21
16 -8 20 16 5z m-2912 -24 c3 -12 -1 -17 -10 -14 -7 3 -15 13 -16 22 -3 12 1
17 10 14 7 -3 15 -13 16 -22z m2606 -19 c-8 -21 -18 -21 -34 -2 -10 12 -10 18
0 31 11 13 15 13 27 1 8 -7 11 -21 7 -30z m381 -7 c3 -5 2 -10 -4 -10 -5 0
-13 5 -16 10 -3 6 -2 10 4 10 5 0 13 -4 16 -10z m-605 -76 c0 -2 -13 2 -30 11
-16 9 -30 18 -30 21 0 2 14 -2 30 -11 17 -9 30 -18 30 -21z m410 -14 c13 -8
13 -11 -2 -26 -14 -14 -20 -15 -33 -4 -12 10 -13 16 -4 26 13 16 19 17 39 4z
m-235 -94 c6 -6 27 -20 48 -31 20 -11 37 -22 37 -26 0 -3 10 -11 23 -16 25
-11 137 -93 137 -100 0 -8 -67 31 -105 62 -41 33 -102 71 -120 76 -5 2 -14 7
-20 11 -5 4 -21 17 -35 29 l-25 20 25 -6 c14 -4 30 -12 35 -19z m-29 -137 c3
-6 -5 -3 -20 6 -14 10 -26 19 -26 22 0 7 39 -17 46 -28z m65 -46 c13 -16 12
-17 -3 -4 -17 13 -22 21 -14 21 2 0 10 -8 17 -17z m149 -99 c0 -2 -9 0 -20 6
-11 6 -20 13 -20 16 0 2 9 0 20 -6 11 -6 20 -13 20 -16z"/>
<path d="M1209 3353 l-34 -38 38 34 c34 33 42 41 34 41 -2 0 -19 -17 -38 -37z"/>
<path d="M1134 3268 l-29 -33 33 29 c17 17 32 31 32 33 0 8 -8 1 -36 -29z"/>
<path d="M2564 3118 l-29 -33 33 29 c17 17 32 31 32 33 0 8 -8 1 -36 -29z"/>
<path d="M3564 3016 c-15 -11 -13 -12 14 -8 36 5 38 7 18 15 -8 3 -22 0 -32
-7z"/>
<path d="M3470 2975 c-2 -11 -4 -26 -4 -33 -1 -8 -10 -20 -20 -28 -27 -19 -9
-17 33 4 19 9 37 24 39 32 4 11 0 11 -16 -3 -20 -19 -21 -18 -25 15 -2 19 -5
25 -7 13z"/>
<path d="M3510 2980 c0 -5 5 -10 10 -10 6 0 10 5 10 10 0 6 -4 10 -10 10 -5 0
-10 -4 -10 -10z"/>
<path d="M2395 2920 c-10 -11 -13 -20 -7 -20 6 0 16 9 22 20 6 11 9 20 7 20
-2 0 -12 -9 -22 -20z"/>
<path d="M2705 2890 c-3 -4 10 -17 28 -28 17 -11 46 -30 64 -42 17 -11 34 -17
37 -12 3 6 -23 28 -59 50 -35 23 -67 37 -70 32z"/>
<path d="M3463 2886 c-10 -11 -9 -15 3 -20 23 -9 24 -8 24 14 0 23 -10 25 -27
6z"/>
<path d="M2341 2810 c-23 -28 -37 -50 -30 -50 21 0 119 61 114 71 -4 5 -14 13
-24 19 -15 8 -26 1 -60 -40z"/>
<path d="M3387 2815 c-23 -32 -15 -32 19 0 16 15 21 25 13 25 -8 0 -22 -12
-32 -25z"/>
<path d="M3092 2763 c-19 -16 -20 -19 -5 -32 14 -12 15 -12 11 0 -3 8 1 22 10
32 8 9 13 17 10 17 -3 0 -15 -8 -26 -17z"/>
<path d="M3210 2770 c-13 -8 -12 -10 3 -10 9 0 17 5 17 10 0 12 -1 12 -20 0z"/>
<path d="M3460 2726 c0 -21 11 -46 20 -46 15 0 17 49 3 54 -21 8 -23 8 -23 -8z"/>
<path d="M3422 2696 c1 -10 8 -17 13 -17 15 1 12 24 -3 29 -9 3 -13 -2 -10
-12z"/>
<path d="M2380 2627 c0 -13 6 -31 13 -41 12 -16 15 -17 20 -3 3 8 4 23 2 33
-2 11 -4 22 -4 27 -2 19 -31 5 -31 -16z"/>
<path d="M2252 2621 c4 -13 18 -16 19 -4 0 4 -5 9 -11 12 -7 2 -11 -2 -8 -8z"/>
<path d="M2834 2614 c-18 -14 -18 -15 4 -4 12 6 22 13 22 15 0 8 -5 6 -26 -11z"/>
<path d="M2200 2605 c14 -8 30 -14 35 -14 6 0 -1 6 -15 14 -14 8 -29 14 -35
14 -5 0 1 -6 15 -14z"/>
<path d="M2265 2570 c3 -5 11 -10 16 -10 6 0 7 5 4 10 -3 6 -11 10 -16 10 -6
0 -7 -4 -4 -10z"/>
<path d="M2754 2564 c-18 -14 -18 -15 4 -4 12 6 22 13 22 15 0 8 -5 6 -26 -11z"/>
<path d="M2135 2558 c-7 -18 19 -70 30 -60 5 4 5 -1 2 -11 -5 -12 -3 -17 4
-15 7 2 12 24 13 48 1 39 -2 45 -22 48 -12 2 -24 -3 -27 -10z"/>
<path d="M2330 2561 c0 -5 7 -14 15 -21 16 -14 18 -10 9 14 -6 17 -24 22 -24
7z"/>
<path d="M2693 2529 c-35 -22 -46 -37 -15 -20 22 13 58 40 52 41 -3 0 -20 -10
-37 -21z"/>
<path d="M1892 2502 c-7 -2 -12 -7 -12 -12 0 -8 70 -44 74 -38 6 7 -52 54 -62
50z"/>
<path d="M2624 2484 c-18 -14 -18 -15 4 -4 12 6 22 13 22 15 0 8 -5 6 -26 -11z"/>
<path d="M2544 2434 c-18 -14 -18 -15 4 -4 12 6 22 13 22 15 0 8 -5 6 -26 -11z"/>
<path d="M2160 2250 c12 -16 24 -30 26 -30 3 0 -4 14 -16 30 -12 17 -24 30
-26 30 -3 0 4 -13 16 -30z"/>
<path d="M2400 2203 c1 -14 40 -59 40 -46 0 6 -4 14 -10 18 -5 3 -7 12 -3 20
3 9 -1 15 -11 15 -9 0 -16 -3 -16 -7z"/>
<path d="M1874 2086 c-12 -6 -28 -17 -35 -23 -8 -6 -18 -12 -24 -13 -16 -3
-20 -10 -5 -10 14 0 100 48 100 55 0 7 -13 4 -36 -9z"/>
<path d="M1783 2023 c-7 -2 -13 -9 -13 -14 0 -6 8 -5 20 1 11 6 25 8 30 5 6
-3 10 -1 10 4 0 11 -25 13 -47 4z"/>
<path d="M4912 1976 c-41 -43 -52 -66 -32 -66 6 0 10 -5 10 -11 0 -6 -7 -8
-16 -5 -9 3 -12 2 -9 -5 4 -5 -13 -31 -37 -57 -64 -70 -160 -181 -176 -203
-10 -14 -20 -18 -34 -13 -16 5 -20 3 -15 -9 3 -9 -3 -23 -16 -34 l-22 -18 20
25 20 25 -28 -25 c-16 -13 -23 -26 -18 -28 6 -2 11 -8 11 -13 0 -6 -4 -7 -10
-4 -5 3 -10 4 -10 1 0 -3 10 -10 21 -17 16 -8 20 -8 14 1 -9 15 20 0 50 -25
18 -16 17 -15 -9 0 -16 9 -26 13 -23 8 3 -5 30 -24 59 -41 47 -29 50 -29 23
-6 -36 31 -19 23 55 -26 30 -21 98 -63 150 -96 52 -32 106 -70 119 -84 13 -14
21 -19 17 -12 -6 10 0 9 23 -3 18 -9 29 -20 26 -25 -3 -5 0 -12 6 -16 8 -4 9
-3 5 4 -4 7 -5 12 -2 12 16 0 221 -141 218 -150 -1 -6 2 -9 8 -5 13 8 52 -13
45 -25 -3 -5 0 -12 6 -16 8 -5 9 -3 4 6 -5 8 -3 11 6 8 8 -3 13 -10 12 -16 -2
-6 3 -9 10 -7 6 3 26 -6 42 -21 l30 -25 -30 17 -30 16 25 -21 c14 -11 28 -21
32 -21 4 0 23 20 44 45 34 43 36 47 20 63 -20 23 -21 36 -2 29 7 -3 20 0 27 6
7 7 5 2 -5 -10 -11 -13 -15 -23 -10 -23 5 0 15 9 22 20 7 12 18 18 25 13 9 -5
9 -3 0 8 -11 13 -7 21 20 45 31 28 31 28 8 2 -14 -16 -22 -30 -19 -33 3 -3 36
32 74 77 95 115 107 134 38 62 -62 -64 -56 -49 11 26 48 54 116 114 96 85 -7
-11 7 3 33 30 25 28 46 54 46 59 0 6 -7 1 -15 -10 -15 -18 -16 -18 -13 4 2 18
-7 29 -49 53 -29 17 -53 28 -53 26 0 -3 24 -19 53 -37 28 -17 41 -28 28 -24
-37 10 -252 145 -246 154 3 5 0 12 -6 16 -8 4 -9 3 -5 -4 4 -7 4 -12 1 -12
-13 0 -535 316 -550 332 -5 6 11 -1 38 -16 69 -40 57 -24 -15 20 -35 21 -72
44 -84 51 -18 12 -24 9 -62 -31z m93 -1 c12 -10 6 -8 -16 4 -20 11 -40 17 -44
13 -5 -4 -5 -1 -1 6 8 13 25 7 61 -23z m-35 -117 c0 -5 -11 -1 -25 8 -14 9
-25 18 -25 20 0 2 11 -2 25 -8 14 -6 25 -15 25 -20z m101 -64 c13 -16 12 -16
-17 -1 -17 9 -37 23 -45 33 -13 16 -12 16 17 1 17 -9 37 -23 45 -33z m121 -67
c16 -12 28 -22 28 -24 0 -4 -90 46 -100 55 -15 14 49 -14 72 -31z m-208 -100
c-8 -13 -12 -14 -28 -2 -16 12 -17 17 -6 30 12 14 15 14 28 2 9 -10 11 -20 6
-30z m471 -67 c3 -5 1 -10 -4 -10 -6 0 -11 5 -11 10 0 6 2 10 4 10 3 0 8 -4
11 -10z m-216 -64 c17 -20 -13 -43 -34 -26 -12 10 -13 16 -4 26 6 8 15 14 19
14 4 0 13 -6 19 -14z m-304 -36 c29 -17 56 -38 59 -46 5 -14 2 -14 -21 2 -16
10 -47 29 -70 42 -24 13 -43 26 -43 28 0 11 27 1 75 -26z m661 15 c10 -8 15
-14 9 -14 -5 0 -19 6 -29 14 -11 8 -15 15 -10 15 6 0 19 -7 30 -15z m109 -64
c-3 -6 -11 -8 -17 -5 -6 4 -5 9 3 15 16 10 23 4 14 -10z m155 16 c0 -2 -10
-12 -22 -23 l-23 -19 19 23 c18 21 26 27 26 19z m-379 -78 c20 -10 20 -11 2
-24 -24 -18 -60 -1 -42 21 14 17 15 17 40 3z m-351 -19 c0 -5 -4 -10 -10 -10
-5 0 -10 5 -10 10 0 6 5 10 10 10 6 0 10 -4 10 -10z m205 -120 c3 -5 -1 -10
-9 -10 -8 0 -18 5 -21 10 -3 6 1 10 9 10 8 0 18 -4 21 -10z m83 -61 c-2 -6 -8
-10 -13 -10 -5 0 -11 4 -13 10 -2 6 4 11 13 11 9 0 15 -5 13 -11z"/>
<path d="M3870 1966 c0 -3 9 -10 20 -16 11 -6 20 -8 20 -6 0 3 -9 10 -20 16
-11 6 -20 8 -20 6z"/>
<path d="M4774 1863 c-33 -37 -54 -64 -48 -60 15 9 118 127 111 127 -2 0 -31
-30 -63 -67z"/>
<path d="M5130 1906 c0 -3 9 -10 20 -16 11 -6 20 -8 20 -6 0 3 -9 10 -20 16
-11 6 -20 8 -20 6z"/>
<path d="M4811 1871 c-6 -10 -7 -22 -3 -26 4 -5 2 -5 -4 -2 -14 8 -37 -17 -26
-27 4 -4 2 -6 -5 -4 -15 4 -133 -132 -133 -154 0 -10 2 -18 4 -18 11 0 205
233 201 241 -10 14 -23 11 -34 -10z"/>
<path d="M5230 1847 c0 -3 39 -29 88 -58 105 -63 102 -61 102 -56 0 3 -33 24
-72 48 -40 23 -83 49 -95 57 -13 8 -23 12 -23 9z"/>
<path d="M2645 1820 c3 -5 11 -10 16 -10 6 0 7 5 4 10 -3 6 -11 10 -16 10 -6
0 -7 -4 -4 -10z"/>
<path d="M4684 1758 l-29 -33 33 29 c30 28 37 36 29 36 -2 0 -16 -15 -33 -32z"/>
<path d="M5447 1714 c27 -22 123 -77 123 -71 0 3 -21 18 -47 33 -27 15 -59 34
-73 42 l-25 14 22 -18z"/>
<path d="M4360 1656 c0 -3 9 -10 20 -16 11 -6 20 -8 20 -6 0 3 -9 10 -20 16
-11 6 -20 8 -20 6z"/>
<path d="M5610 1616 c0 -3 9 -10 20 -16 11 -6 20 -8 20 -6 0 3 -9 10 -20 16
-11 6 -20 8 -20 6z"/>
<path d="M5660 1586 c0 -3 9 -10 20 -16 11 -6 20 -8 20 -6 0 3 -9 10 -20 16
-11 6 -20 8 -20 6z"/>
<path d="M5710 1556 c0 -3 9 -10 20 -16 11 -6 20 -8 20 -6 0 3 -9 10 -20 16
-11 6 -20 8 -20 6z"/>
<path d="M4482 1483 c-11 -16 -20 -32 -21 -38 -1 -5 -5 -10 -10 -10 -6 0 -16
-6 -22 -12 -10 -10 -10 -13 -1 -13 7 0 12 -7 12 -16 0 -10 -6 -13 -18 -10 -13
5 -47 -28 -140 -133 -110 -125 -139 -162 -114 -147 5 3 9 -1 9 -9 0 -10 -4
-12 -13 -5 -8 8 -23 -2 -53 -36 -22 -26 -41 -51 -41 -55 0 -13 48 -41 59 -35
5 4 13 1 17 -5 4 -8 3 -9 -4 -5 -25 15 -10 -3 16 -20 26 -17 27 -17 12 1 -8
11 6 5 33 -14 26 -17 47 -34 47 -37 0 -3 -13 4 -30 16 -16 12 -30 19 -30 16 0
-11 221 -157 229 -151 5 3 13 0 17 -6 4 -8 3 -9 -4 -5 -7 4 -12 5 -12 2 0 -11
145 -103 157 -99 6 2 15 -1 19 -8 5 -8 3 -9 -6 -4 -9 5 -11 4 -6 -4 4 -6 11
-9 16 -6 13 8 52 -14 45 -25 -7 -11 106 -88 121 -83 6 2 22 -6 35 -18 l24 -21
-30 17 c-28 16 -29 16 -14 1 9 -10 28 -19 43 -20 15 -2 35 -11 44 -21 10 -10
11 -15 5 -11 -19 10 -16 1 4 -15 14 -12 16 -12 9 0 -6 9 -4 12 5 9 8 -3 14
-10 14 -16 0 -5 4 -14 9 -19 5 -5 6 -3 2 5 -10 17 5 15 32 -4 12 -8 26 -12 32
-9 5 3 7 -1 4 -9 -5 -14 -9 -13 -32 1 l-27 15 25 -20 c23 -19 26 -20 43 -4 10
8 16 21 13 27 -2 7 0 18 6 26 7 11 8 9 3 -6 -5 -18 -4 -17 19 4 13 13 22 29
19 37 -7 18 16 46 33 40 8 -3 11 0 8 8 -5 13 135 181 144 172 7 -7 42 24 42
37 0 5 -8 3 -17 -4 -16 -13 -17 -12 -5 3 8 10 19 16 25 15 7 -1 12 6 12 15 0
10 6 23 14 30 11 11 13 11 6 -1 -6 -10 -4 -12 4 -7 7 5 10 10 7 13 -8 9 13 43
27 43 7 0 6 -4 -3 -10 -8 -5 -10 -10 -4 -10 12 0 64 52 64 65 0 5 -12 -2 -26
-16 -26 -24 -26 -24 -15 -1 10 20 22 26 43 24 3 -1 11 5 18 12 14 17 19 13
-365 258 -340 216 -315 200 -315 194 0 -2 129 -86 288 -186 158 -100 294 -189
302 -198 13 -13 13 -14 0 -7 -20 11 -293 184 -395 250 -83 53 -263 168 -303
192 -12 8 -20 18 -17 22 7 12 -76 65 -98 63 -9 0 -15 3 -12 9 14 22 -16 6 -33
-18z m123 -40 c11 -7 15 -13 10 -13 -13 0 -85 48 -85 57 0 5 25 -9 75 -44z
m-190 -82 c-3 -6 -11 -11 -17 -11 -6 0 -6 6 2 15 14 17 26 13 15 -4z m105 -1
c16 -13 20 -20 10 -19 -16 0 -50 22 -50 33 0 11 14 6 40 -14z m100 -71 c11
-19 10 -20 -10 -9 -11 6 -18 15 -15 21 9 13 13 11 25 -12z m-300 -32 c0 -2
-10 -12 -22 -23 l-23 -19 19 23 c18 21 26 27 26 19z m408 -36 c3 -8 -1 -12 -9
-9 -7 2 -15 10 -17 17 -3 8 1 12 9 9 7 -2 15 -10 17 -17z m-188 -114 c0 -12
-28 -20 -45 -13 -13 4 -13 9 -3 25 9 15 15 17 30 8 10 -7 18 -15 18 -20z m447
-54 l28 -26 -32 19 c-18 10 -33 22 -33 26 0 13 8 9 37 -19z m-711 -41 c-4 -3
-14 2 -24 12 -16 18 -16 18 6 6 13 -6 21 -14 18 -18z m824 -23 c0 -13 -24 -11
-45 4 -16 13 -15 14 13 9 18 -2 32 -8 32 -13z m-322 -27 c12 -8 7 -42 -7 -42
-17 1 -31 18 -25 33 7 19 13 20 32 9z m622 -28 c0 -2 -9 0 -20 6 -11 6 -20 13
-20 16 0 2 9 0 20 -6 11 -6 20 -13 20 -16z m-969 -4 c5 0 9 -4 9 -10 0 -16
-26 -12 -41 7 -12 15 -12 16 4 10 10 -4 23 -7 28 -7z m779 -20 c14 -11 20 -20
14 -20 -7 0 -22 9 -35 20 -31 25 -12 26 21 0z m-700 -50 c0 -5 -4 -10 -10 -10
-5 0 -10 5 -10 10 0 6 5 10 10 10 6 0 10 -4 10 -10z m-160 -43 c0 -5 -13 1
-30 13 -39 27 -39 34 0 12 16 -9 30 -21 30 -25z m56 -38 c3 -6 -5 -3 -20 6
-14 10 -26 19 -26 22 0 7 39 -17 46 -28z m624 21 c13 -8 13 -11 -2 -26 -14
-14 -20 -15 -33 -4 -12 10 -13 16 -4 26 13 16 19 17 39 4z m-490 -111 c26 -23
19 -20 -27 11 -35 22 -63 43 -63 46 0 8 52 -25 90 -57z m325 -61 c14 -6 25
-15 25 -20 0 -13 -13 -9 -40 12 -28 22 -23 25 15 8z m-155 -54 c67 -48 64 -53
-5 -8 -30 20 -55 38 -55 40 0 9 13 2 60 -32z"/>
<path d="M4650 1418 c19 -18 90 -61 90 -55 0 3 -24 20 -52 37 -29 18 -46 25
-38 18z"/>
<path d="M4720 1426 c0 -3 9 -10 20 -16 11 -6 20 -8 20 -6 0 3 -9 10 -20 16
-11 6 -20 8 -20 6z"/>
<path d="M4830 1356 c0 -3 9 -10 20 -16 11 -6 20 -8 20 -6 0 3 -9 10 -20 16
-11 6 -20 8 -20 6z"/>
<path d="M4880 1326 c0 -3 9 -10 20 -16 11 -6 20 -8 20 -6 0 3 -9 10 -20 16
-11 6 -20 8 -20 6z"/>
<path d="M4934 1291 c7 -11 46 -35 46 -28 0 3 -12 12 -26 22 -15 9 -23 12 -20
6z"/>
<path d="M5115 1175 c11 -9 29 -21 40 -26 l20 -10 -20 16 c-11 9 -29 21 -40
26 l-20 10 20 -16z"/>
<path d="M5185 1131 c3 -5 28 -23 56 -41 28 -17 48 -27 45 -22 -3 4 -28 23
-56 40 -28 18 -49 28 -45 23z"/>
<path d="M5184 633 c-78 -90 -91 -114 -24 -43 54 58 87 100 77 100 -2 0 -25
-26 -53 -57z"/>
</g>
</svg>
